<svg xmlns="http://www.w3.org/2000/svg" fill="none" viewBox="0 0 200 200" width="400" height="400" class="coolshapes rectangle-8 "><g clip-path="url(#cs_clip_1_rectangle-8)"><mask id="cs_mask_1_rectangle-8" style="mask-type:alpha" width="200" height="200" x="0" y="0" maskUnits="userSpaceOnUse"><path fill="#fff" fill-rule="evenodd" d="M150 50H50v100h100V50zM0 0v200h200V0H0z" clip-rule="evenodd"></path></mask><g mask="url(#cs_mask_1_rectangle-8)"><path fill="#fff" d="M200 0H0v200h200V0z"></path><path fill="#fff" d="M200 0H0v200h200V0z"></path><path fill="url(#paint0_radial_844_2844)" d="M200 0H0v200h200V0z"></path><path fill="url(#paint1_radial_844_2844)" d="M200 0H0v200h200V0z"></path><g filter="url(#filter0_f_844_2844)"><path fill="#00F0FF" d="M183 82H50v110h133V82z"></path></g></g></g><defs><filter id="filter0_f_844_2844" width="293" height="270" x="-30" y="2" color-interpolation-filters="sRGB" filterUnits="userSpaceOnUse"><feFlood flood-opacity="0" result="BackgroundImageFix"></feFlood><feBlend in="SourceGraphic" in2="BackgroundImageFix" result="shape"></feBlend><feGaussianBlur result="effect1_foregroundBlur_844_2844" stdDeviation="40"></feGaussianBlur></filter><radialGradient id="paint0_radial_844_2844" cx="0" cy="0" r="1" gradientTransform="rotate(116.694 71.023 87.946) scale(199.234)" gradientUnits="userSpaceOnUse"><stop stop-color="#FFF500"></stop><stop offset="1" stop-color="#FF00D6" stop-opacity="0"></stop></radialGradient><radialGradient id="paint1_radial_844_2844" cx="0" cy="0" r="1" gradientTransform="rotate(48.452 -12.085 35.502) scale(223.143)" gradientUnits="userSpaceOnUse"><stop stop-color="#FF00D6"></stop><stop offset="0.461" stop-color="#FF7171" stop-opacity="0.84"></stop><stop offset="1" stop-color="#FFF500" stop-opacity="0"></stop></radialGradient><clipPath id="cs_clip_1_rectangle-8"><path fill="#fff" d="M0 0H200V200H0z"></path></clipPath></defs><g style="mix-blend-mode:overlay" mask="url(#cs_mask_1_rectangle-8)"><path fill="gray" stroke="transparent" d="M200 0H0v200h200V0z" filter="url(#cs_noise_1_rectangle-8)"></path></g><defs><filter id="cs_noise_1_rectangle-8" width="100%" height="100%" x="0%" y="0%" filterUnits="objectBoundingBox"><feTurbulence baseFrequency="0.6" numOctaves="5" result="out1" seed="4"></feTurbulence><feComposite in="out1" in2="SourceGraphic" operator="in" result="out2"></feComposite><feBlend in="SourceGraphic" in2="out2" mode="overlay" result="out3"></feBlend></filter></defs></svg>